<svg xmlns="http://www.w3.org/2000/svg" xmlns:xlink="http://www.w3.org/1999/xlink" version="1.2" baseProfile="tiny-ps" id="Quick_Service" viewBox="0 0 2000 2000" xml:space="preserve" width="2000"  height="2000" >
<title>Quick Service Logo</title>
<path fill="#B5284F" d="M1776.16,1621.21C1916.11,1450.16,2000,1231.94,2000,994.25C2000,445.14,1552.28,0,1000,0S0,445.14,0,994.25  s447.72,994.25,1000,994.25c201.2,0,388.51-59.08,545.36-160.73c5.87-3.81,17.49-11.6,17.49-11.6L1939.3,2000l-176.04-363.34  C1763.26,1636.66,1771.91,1626.41,1776.16,1621.21z M997.1,1763.09c-423.13,0-766.15-341.05-766.15-761.75  S573.97,239.59,997.1,239.59s766.15,341.05,766.15,761.75S1420.24,1763.09,997.1,1763.09z"/>
</svg>